<svg width="30" height="30" viewBox="0 0 30 30" fill="none" xmlns="http://www.w3.org/2000/svg">
<rect width="30" height="30" rx="15" fill="#D4212D"/>
<path fill-rule="evenodd" clip-rule="evenodd" d="M15 2.88462C8.30886 2.88462 2.88461 8.30886 2.88461 15C2.88461 21.6911 8.30886 27.1154 15 27.1154C21.6911 27.1154 27.1154 21.6911 27.1154 15C27.1154 8.30886 21.6911 2.88462 15 2.88462ZM12.4782 10.8995C12.4782 9.4919 13.616 8.33661 15.0023 8.33661C16.3885 8.33661 17.5263 9.4919 17.5263 10.8995V11.4121H20.0188L20.0503 11.8926L20.5551 21.1189L20.5867 21.6635H9.41782L9.44937 21.1189L9.95417 11.8926L9.98573 11.4121H12.4782V10.8995ZM10.9322 12.4372H12.4782V13.9749H13.4878V12.4372H16.5167V13.9749H17.5263V12.4372H19.0723L19.514 20.6384H10.4905L10.9322 12.4372ZM16.5167 10.8985C16.5167 10.0496 15.8383 9.36081 15.0023 9.36081C14.1662 9.36081 13.4878 10.0496 13.4878 10.8985V11.4111H16.5167V10.8985Z" fill="white"/>
</svg>
