<svg width="30" height="30" viewBox="0 0 30 30" fill="none" xmlns="http://www.w3.org/2000/svg">
<path d="M0 15C0 6.71573 6.71573 0 15 0C23.2843 0 30 6.71573 30 15C30 23.2843 23.2843 30 15 30C6.71573 30 0 23.2843 0 15Z" fill="#D4212D"/>
<path fill-rule="evenodd" clip-rule="evenodd" d="M2.79932 14.9612C2.79932 8.27005 8.22356 2.84581 14.9147 2.84581C21.6058 2.84581 27.0301 8.27005 27.0301 14.9612C27.0301 21.6523 21.6058 27.0766 14.9147 27.0766C8.22356 27.0766 2.79932 21.6523 2.79932 14.9612ZM14.9246 22.5773C10.9126 22.5773 7.64838 19.2581 7.64838 15.1777C7.64838 11.0983 10.9126 7.7788 14.9246 7.7788C18.9367 7.7788 22.2009 11.0983 22.2009 15.1777C22.2009 19.2581 18.9367 22.5773 14.9246 22.5773ZM8.86672 15.1775C8.86672 11.78 11.585 9.01545 14.9268 9.01545C18.268 9.01545 20.9868 11.78 20.9868 15.1775C20.9868 18.5758 18.268 21.3406 14.9268 21.3406C11.585 21.3406 8.86672 18.5758 8.86672 15.1775ZM14.0979 18.6499C14.0979 19.0105 14.3903 19.3028 14.7509 19.3028C15.1115 19.3028 15.4038 19.0105 15.4038 18.6499V14.6001C15.4038 14.2394 15.1115 13.9471 14.7509 13.9471C14.3903 13.9471 14.0979 14.2394 14.0979 14.6001V18.6499ZM15.5313 11.9551C15.5313 11.5199 15.179 11.1604 14.7508 11.1604C14.3228 11.1604 13.9693 11.5199 13.9693 11.9551C13.9693 12.3903 14.3228 12.7493 14.7508 12.7493C15.179 12.7493 15.5313 12.3903 15.5313 11.9551Z" fill="white"/>
</svg>
